<svg width="17" height="17" viewBox="0 0 17 17" fill="none" xmlns="http://www.w3.org/2000/svg">
<path d="M15.7285 0.353394H1.80703C1.33042 0.353394 0.943787 0.748727 0.943787 1.23606V15.4707C0.943787 15.9587 1.33042 16.3534 1.80703 16.3534H9.30108V10.1574H7.26098V7.74339H9.30108V5.96006C9.30108 3.89406 10.536 2.77006 12.3387 2.77006C13.2026 2.77006 13.9453 2.83473 14.1617 2.86406V5.02406H12.9092C11.9312 5.02406 11.7409 5.50473 11.7409 6.20473V7.74539H14.0776L13.7744 10.1654H11.7409V16.3534H15.7278C16.2057 16.3534 16.5917 15.9587 16.5917 15.4707V1.23606C16.5917 0.748727 16.2057 0.353394 15.7285 0.353394Z" fill="#F8F8F8"/>
</svg>
