<svg width="16" height="17" viewBox="0 0 16 17" fill="none" xmlns="http://www.w3.org/2000/svg">
<path d="M8.1198 0.353394C5.99429 0.353394 5.72893 0.363394 4.89437 0.401394C4.06112 0.441394 3.49388 0.575394 2.9951 0.773394C2.48068 0.977394 2.04384 1.25139 1.60896 1.69606C1.17408 2.14073 0.905454 2.58673 0.706595 3.11339C0.512952 3.62339 0.381249 4.20339 0.342781 5.05539C0.303661 5.90873 0.295837 6.18006 0.295837 8.35339C0.295837 10.5267 0.305617 10.7981 0.342781 11.6514C0.381901 12.5027 0.512952 13.0834 0.706595 13.5934C0.906106 14.1187 1.17408 14.5661 1.60896 15.0107C2.04384 15.4547 2.48003 15.7301 2.9951 15.9334C3.49453 16.1307 4.06177 16.2661 4.89437 16.3054C5.72893 16.3454 5.99429 16.3534 8.1198 16.3534C10.2453 16.3534 10.5107 16.3434 11.3452 16.3054C12.1778 16.2654 12.7457 16.1307 13.2445 15.9334C13.7583 15.7294 14.1958 15.4547 14.6306 15.0107C15.0649 14.5661 15.3341 14.1207 15.533 13.5934C15.726 13.0834 15.8583 12.5027 15.8968 11.6514C15.9359 10.7981 15.9438 10.5267 15.9438 8.35339C15.9438 6.18006 15.934 5.90873 15.8968 5.05539C15.8577 4.20406 15.726 3.62273 15.533 3.11339C15.3335 2.58739 15.0649 2.14073 14.6306 1.69606C14.1958 1.25139 13.7602 0.976727 13.2445 0.773394C12.7457 0.575394 12.1778 0.440727 11.3452 0.401394C10.5107 0.361394 10.2453 0.353394 8.1198 0.353394ZM8.1198 1.79339C10.2081 1.79339 10.4572 1.80406 11.282 1.84073C12.0448 1.87739 12.4588 2.00673 12.734 2.11739C13.1004 2.26206 13.3599 2.43539 13.635 2.71473C13.9082 2.99473 14.0777 3.26073 14.2192 3.63539C14.3262 3.91673 14.4539 4.34006 14.4885 5.12006C14.5257 5.96406 14.5341 6.21739 14.5341 8.35339C14.5341 10.4894 14.5244 10.7434 14.4859 11.5867C14.4461 12.3667 14.319 12.7901 14.2114 13.0714C14.0654 13.4461 13.8991 13.7114 13.6253 13.9927C13.3521 14.2721 13.088 14.4454 12.7255 14.5901C12.4517 14.6994 12.0311 14.8301 11.2683 14.8654C10.4376 14.9034 10.1931 14.9121 8.10024 14.9121C6.00668 14.9121 5.76218 14.9021 4.93219 14.8627C4.1687 14.8221 3.74816 14.6921 3.47432 14.5821C3.10334 14.4327 2.8484 14.2627 2.57522 13.9827C2.30073 13.7034 2.12534 13.4334 1.98842 13.0627C1.88084 12.7827 1.75435 12.3527 1.71458 11.5727C1.68524 10.7327 1.67481 10.4734 1.67481 8.34339C1.67481 6.21273 1.68524 5.95273 1.71458 5.10273C1.75435 4.32273 1.88084 3.89339 1.98842 3.61339C2.12534 3.23339 2.30073 2.97339 2.57522 2.69273C2.8484 2.41339 3.10334 2.23339 3.47432 2.09406C3.74816 1.98339 4.15957 1.85339 4.92241 1.81339C5.7537 1.78339 5.9982 1.77339 8.09046 1.77339L8.1198 1.79339ZM8.1198 4.24539C5.89975 4.24539 4.10219 6.08539 4.10219 8.35339C4.10219 10.6234 5.90171 12.4614 8.1198 12.4614C10.3398 12.4614 12.1374 10.6214 12.1374 8.35339C12.1374 6.08339 10.3379 4.24539 8.1198 4.24539ZM8.1198 11.0201C6.67889 11.0201 5.51181 9.82673 5.51181 8.35339C5.51181 6.88006 6.67889 5.68673 8.1198 5.68673C9.56071 5.68673 10.7278 6.88006 10.7278 8.35339C10.7278 9.82673 9.56071 11.0201 8.1198 11.0201ZM13.2354 4.08339C13.2354 4.61339 12.8142 5.04339 12.2965 5.04339C11.7782 5.04339 11.3576 4.61273 11.3576 4.08339C11.3576 3.55406 11.7788 3.12406 12.2965 3.12406C12.8135 3.12339 13.2354 3.55406 13.2354 4.08339Z" fill="#F8F8F8"/>
</svg>
