<svg width="17" height="17" viewBox="0 0 17 17" fill="none" xmlns="http://www.w3.org/2000/svg">
<path d="M13.9793 13.9881H11.6621V10.2754C11.6621 9.39006 11.6445 8.25073 10.4546 8.25073C9.24645 8.25073 9.06194 9.21406 9.06194 10.2101V13.9881H6.74474V6.35339H8.97066V7.39406H9.00065C9.31165 6.79406 10.068 6.16073 11.1979 6.16073C13.5457 6.16073 13.9799 7.74073 13.9799 9.79739V13.9881H13.9793ZM4.12763 5.30873C3.38174 5.30873 2.78256 4.69139 2.78256 3.93206C2.78256 3.17339 3.38239 2.55673 4.12763 2.55673C4.8709 2.55673 5.47335 3.17339 5.47335 3.93206C5.47335 4.69139 4.87025 5.30873 4.12763 5.30873ZM5.28948 13.9881H2.96577V6.35339H5.28948V13.9881ZM15.1385 0.353394H1.8026C1.1643 0.353394 0.647919 0.869394 0.647919 1.50606V15.2007C0.647919 15.8381 1.1643 16.3534 1.8026 16.3534H15.1366C15.7742 16.3534 16.2958 15.8381 16.2958 15.2007V1.50606C16.2958 0.869394 15.7742 0.353394 15.1366 0.353394H15.1385Z" fill="#F8F8F8"/>
</svg>
