<svg width="20" height="20" viewBox="0 0 20 20" fill="none" xmlns="http://www.w3.org/2000/svg">
<path fill-rule="evenodd" clip-rule="evenodd" d="M9.86193 1.66663H10.1383C11.0484 1.66662 11.7697 1.66662 12.351 1.71412C12.9455 1.76268 13.4485 1.86403 13.9078 2.09806C14.6526 2.47756 15.2582 3.08311 15.6377 3.82792C15.8717 4.28723 15.973 4.79025 16.0216 5.38473C16.0691 5.96608 16.0691 6.68733 16.0691 7.59744V12.4025C16.0691 13.3126 16.0691 14.0338 16.0216 14.6152C15.973 15.2097 15.8717 15.7127 15.6377 16.172C15.2582 16.9168 14.6526 17.5224 13.9078 17.9019C13.4485 18.1359 12.9455 18.2372 12.351 18.2858C11.7697 18.3333 11.0484 18.3333 10.1383 18.3333H9.86193C8.95177 18.3333 8.23055 18.3333 7.6492 18.2858C7.05471 18.2372 6.55168 18.1359 6.09237 17.9019C5.34757 17.5224 4.74202 16.9168 4.36252 16.172C4.12849 15.7127 4.02715 15.2097 3.97857 14.6152C3.93107 14.0338 3.93108 13.3125 3.93109 12.4025V7.59746C3.93108 6.68734 3.93108 5.96609 3.97857 5.38473C4.02715 4.79024 4.12849 4.28723 4.36252 3.82791C4.74202 3.08311 5.34757 2.47756 6.09237 2.09806C6.55169 1.86403 7.05471 1.76268 7.6492 1.71412C8.23055 1.66662 8.95177 1.66662 9.86193 1.66663ZM7.75099 2.95997C7.2338 3.00222 6.91359 3.08253 6.65987 3.21182C6.15026 3.47148 5.73593 3.88579 5.47627 4.3954C5.347 4.64913 5.26668 4.96933 5.22442 5.48653C5.18157 6.01102 5.18109 6.68123 5.18109 7.62496V12.375C5.18109 13.3187 5.18157 13.9889 5.22442 14.5134C5.26668 15.0305 5.347 15.3508 5.47627 15.6045C5.73593 16.1141 6.15026 16.5285 6.65987 16.7881C6.91359 16.9174 7.2338 16.9977 7.75099 17.04C8.27548 17.0828 8.94568 17.0833 9.88943 17.0833H10.1108C11.0545 17.0833 11.7247 17.0828 12.2492 17.04C12.7664 16.9977 13.0866 16.9174 13.3403 16.7881C13.8499 16.5285 14.2643 16.1141 14.5239 15.6045C14.6532 15.3508 14.7335 15.0305 14.7758 14.5134C14.8186 13.9889 14.8191 13.3187 14.8191 12.375V7.62496C14.8191 6.68123 14.8186 6.01102 14.7758 5.48653C14.7335 4.96933 14.6532 4.64913 14.5239 4.3954C14.2643 3.88579 13.8499 3.47148 13.3403 3.21182C13.0866 3.08253 12.7664 3.00222 12.2492 2.95997C11.7247 2.91711 11.0545 2.91663 10.1108 2.91663H9.88943C8.94568 2.91663 8.27548 2.91711 7.75099 2.95997ZM8.21885 4.41142C8.21885 4.06624 8.49868 3.78642 8.84385 3.78642H11.1563C11.5015 3.78642 11.7813 4.06624 11.7813 4.41142C11.7813 4.75659 11.5015 5.03642 11.1563 5.03642H8.84385C8.49868 5.03642 8.21885 4.75659 8.21885 4.41142ZM10.0001 14.8671C10.3453 14.8671 10.6251 15.147 10.6251 15.4921V15.5162C10.6251 15.8614 10.3453 16.1412 10.0001 16.1412C9.65493 16.1412 9.3751 15.8614 9.3751 15.5162V15.4921C9.3751 15.147 9.65493 14.8671 10.0001 14.8671Z" fill="#989898"/>
</svg>
