<svg width="20" height="20" viewBox="0 0 20 20" fill="none" xmlns="http://www.w3.org/2000/svg">
<path fill-rule="evenodd" clip-rule="evenodd" d="M9.97452 1.66663H10.0255C11.2667 1.66663 12.2328 1.66662 13.0102 1.72403C13.7991 1.7823 14.4431 1.90218 15.0299 2.16802C16.2729 2.73123 17.2688 3.72712 17.8319 4.97015C18.0978 5.55686 18.2177 6.20083 18.2759 6.9898C18.3334 7.76717 18.3334 8.73329 18.3334 9.97446V10.0255C18.3334 11.2666 18.3334 12.2327 18.2759 13.0101C18.2177 13.799 18.0978 14.443 17.8319 15.0298C17.2688 16.2728 16.2729 17.2687 15.0299 17.8319C14.4431 18.0977 13.7991 18.2176 13.0102 18.2759C12.2328 18.3333 11.2667 18.3333 10.0255 18.3333H9.97452C8.73335 18.3333 7.76723 18.3333 6.98986 18.2759C6.2009 18.2176 5.55691 18.0977 4.97021 17.8319C3.72718 17.2687 2.73129 16.2728 2.16808 15.0298C1.90225 14.443 1.78236 13.799 1.7241 13.0101C1.66668 12.2327 1.66669 11.2666 1.66669 10.0255V9.97446C1.66669 8.73329 1.66668 7.76718 1.7241 6.9898C1.78236 6.20083 1.90225 5.55685 2.16808 4.97015C2.73129 3.72712 3.72718 2.73123 4.97021 2.16802C5.55692 1.90218 6.2009 1.7823 6.98986 1.72403C7.76724 1.66662 8.73335 1.66663 9.97452 1.66663ZM6.87502 2.98793C6.26813 3.04493 5.84372 3.14456 5.4861 3.30659C4.5193 3.74465 3.74471 4.51923 3.30666 5.48603C3.12681 5.88297 3.02385 6.36218 2.9707 7.08187C2.91709 7.80783 2.91669 8.72796 2.91669 9.99996C2.91669 11.272 2.91709 12.192 2.9707 12.918C3.02385 13.6377 3.12681 14.117 3.30665 14.5139C3.74471 15.4807 4.5193 16.2553 5.4861 16.6933C5.84371 16.8554 6.26812 16.955 6.87502 17.012V2.98793ZM8.12502 2.92706V9.47913H11.875V2.92706C11.3464 2.91676 10.7314 2.91663 10 2.91663C9.26869 2.91663 8.65369 2.91676 8.12502 2.92706ZM13.125 2.98793V17.012C13.7319 16.955 14.1564 16.8554 14.5139 16.6933C15.4808 16.2553 16.2554 15.4807 16.6934 14.5139C16.8733 14.117 16.9762 13.6377 17.0294 12.918C17.0829 12.192 17.0834 11.272 17.0834 9.99996C17.0834 8.72796 17.0829 7.80783 17.0294 7.08187C16.9762 6.36218 16.8733 5.88297 16.6934 5.48603C16.2554 4.51923 15.4808 3.74465 14.5139 3.3066C14.1564 3.14456 13.7319 3.04493 13.125 2.98793ZM11.875 17.0729V10.7291H8.12502V17.0729C8.65369 17.0831 9.26869 17.0833 10 17.0833C10.7314 17.0833 11.3464 17.0831 11.875 17.0729Z" fill="#989898"/>
</svg>
