<svg width="14" height="11" viewBox="0 0 14 11" fill="none" xmlns="http://www.w3.org/2000/svg">
<path fill-rule="evenodd" clip-rule="evenodd" d="M7.00004 0.203674C7.27617 0.203674 7.50004 0.427534 7.50004 0.703674V6.41171L9.40124 4.65265C9.60391 4.46511 9.92024 4.47738 10.1078 4.68011C10.2954 4.88278 10.283 5.19911 10.0804 5.38665L7.33964 7.92251C7.14797 8.09985 6.85211 8.09985 6.66051 7.92251L3.91975 5.38665C3.71705 5.19911 3.70477 4.88278 3.89231 4.68011C4.07985 4.47738 4.3962 4.46511 4.59889 4.65265L6.50004 6.41171V0.703674C6.50004 0.427534 6.72391 0.203674 7.00004 0.203674ZM0.833374 3.6296C1.10951 3.6296 1.33337 3.85346 1.33337 4.1296C1.33337 7.25925 3.87043 9.79625 7.00004 9.79625C10.1296 9.79625 12.6667 7.25925 12.6667 4.1296C12.6667 3.85346 12.8906 3.6296 13.1667 3.6296C13.4428 3.6296 13.6667 3.85346 13.6667 4.1296C13.6667 7.81151 10.6819 10.7962 7.00004 10.7962C3.31814 10.7962 0.333374 7.81151 0.333374 4.1296C0.333374 3.85346 0.557234 3.6296 0.833374 3.6296Z" fill="#989898"/>
</svg>
