<svg width="10" height="15" viewBox="0 0 10 15" fill="none" xmlns="http://www.w3.org/2000/svg">
<path fill-rule="evenodd" clip-rule="evenodd" d="M4.88957 0.833313H5.11064C5.83877 0.833306 6.41577 0.833306 6.88084 0.871306C7.35644 0.91016 7.75884 0.991233 8.1263 1.17846C8.7221 1.48206 9.20657 1.9665 9.51017 2.56235C9.69737 2.92979 9.77844 3.33221 9.8173 3.8078C9.8553 4.27288 9.8553 4.84988 9.8553 5.57797V9.42198C9.8553 10.1501 9.8553 10.727 9.8173 11.1922C9.77844 11.6678 9.69737 12.0702 9.51017 12.4376C9.20657 13.0334 8.7221 13.5179 8.1263 13.8215C7.75884 14.0087 7.35644 14.0898 6.88084 14.1286C6.41577 14.1666 5.83877 14.1666 5.11064 14.1666H4.88957C4.16144 14.1666 3.58446 14.1666 3.11938 14.1286C2.64379 14.0898 2.24137 14.0087 1.87392 13.8215C1.27808 13.5179 0.793638 13.0334 0.490038 12.4376C0.302818 12.0702 0.221744 11.6678 0.182884 11.1922C0.144884 10.727 0.144891 10.15 0.144898 9.42198V5.57798C0.144891 4.84989 0.144891 4.27289 0.182884 3.8078C0.221744 3.33221 0.302818 2.92979 0.490038 2.56234C0.793638 1.9665 1.27808 1.48206 1.87392 1.17846C2.24138 0.991233 2.64379 0.91016 3.11938 0.871306C3.58446 0.833306 4.16144 0.833306 4.88957 0.833313ZM3.20082 1.86799C2.78706 1.90179 2.5309 1.96604 2.32792 2.06947C1.92023 2.27719 1.58877 2.60865 1.38104 3.01633C1.27762 3.21931 1.21337 3.47548 1.17956 3.88923C1.14528 4.30883 1.1449 4.84499 1.1449 5.59998V9.39998C1.1449 10.155 1.14528 10.6911 1.17956 11.1107C1.21337 11.5244 1.27762 11.7806 1.38104 11.9836C1.58877 12.3913 1.92023 12.7228 2.32792 12.9305C2.5309 13.0339 2.78706 13.0982 3.20082 13.132C3.6204 13.1662 4.15657 13.1666 4.91157 13.1666H5.08864C5.84364 13.1666 6.37977 13.1662 6.79937 13.132C7.21317 13.0982 7.4693 13.0339 7.6723 12.9305C8.07997 12.7228 8.41144 12.3913 8.61917 11.9836C8.72257 11.7806 8.78684 11.5244 8.82064 11.1107C8.8549 10.6911 8.8553 10.155 8.8553 9.39998V5.59998C8.8553 4.84499 8.8549 4.30883 8.82064 3.88923C8.78684 3.47548 8.72257 3.21931 8.61917 3.01633C8.41144 2.60865 8.07997 2.27719 7.6723 2.06947C7.4693 1.96604 7.21317 1.90179 6.79937 1.86799C6.37977 1.8337 5.84364 1.83331 5.08864 1.83331H4.91157C4.15657 1.83331 3.6204 1.8337 3.20082 1.86799ZM3.5751 3.02915C3.5751 2.75301 3.79897 2.52915 4.0751 2.52915H5.9251C6.20124 2.52915 6.4251 2.75301 6.4251 3.02915C6.4251 3.30529 6.20124 3.52915 5.9251 3.52915H4.0751C3.79897 3.52915 3.5751 3.30529 3.5751 3.02915ZM5.0001 11.3937C5.27624 11.3937 5.5001 11.6176 5.5001 11.8937V11.913C5.5001 12.1891 5.27624 12.413 5.0001 12.413C4.72397 12.413 4.5001 12.1891 4.5001 11.913V11.8937C4.5001 11.6176 4.72397 11.3937 5.0001 11.3937Z" fill="#989898"/>
</svg>
